<svg width="1223" height="724" viewBox="0 0 1223 724" fill="none" xmlns="http://www.w3.org/2000/svg">
<path className="arr" d="M344.001 173.5C344.001 173.5 389.5 173.5 199.501 173.5C9.50061 173.5 5 167 5 287.5" stroke="black" stroke-width="9" id="arrow2a"/> 
<path className="arr" d="M162.501 376C33.5006 376 5.00064 376 5.00064 277.5" stroke="black" stroke-width="9" id="arrow2b"/> 
<path className="arr" d="M239.151 188.739L239.151 157.562L212.151 173.151L239.151 188.739Z" fill="white" stroke="black" stroke-width="7" id="tri2"/>
<path id="nameluke" d="M85.8725 45H81.3605V11.4H85.8725V25.512H100.465V11.4H104.977V45H100.465V29.736H85.8725V45ZM117.449 45H113.225V25.992H109.289L111.209 21.96H117.449V45ZM113.033 17.16C112.617 16.616 112.409 16.024 112.409 15.384C112.409 14.744 112.617 14.168 113.033 13.656C113.449 13.112 114.089 12.84 114.953 12.84C115.817 12.84 116.457 13.112 116.873 13.656C117.289 14.168 117.497 14.744 117.497 15.384C117.497 16.024 117.289 16.616 116.873 17.16C116.457 17.672 115.817 17.928 114.953 17.928C114.089 17.928 113.449 17.672 113.033 17.16ZM125.017 52.44L122.617 50.904C123.833 48.536 124.537 46.568 124.729 45H121.465L123.385 40.968H129.673C129.673 45.448 128.121 49.272 125.017 52.44ZM145.667 21.96H166.835C169.107 21.96 170.915 22.392 172.259 23.256C173.635 24.12 174.531 25.24 174.947 26.616C175.395 27.992 175.619 29.64 175.619 31.56V45H171.395V31.56C171.395 29.064 170.643 27.416 169.139 26.616C168.371 26.2 166.819 25.992 164.483 25.992H162.515V45H158.291V25.992H149.891V45H145.667V21.96ZM180.661 21.96H184.885V34.008C184.885 36.6 185.285 38.408 186.085 39.432C186.885 40.456 188.357 40.968 190.501 40.968H195.541V21.96H199.765V43.848C199.765 47.848 198.709 50.856 196.597 52.872C194.517 54.92 191.237 55.944 186.757 55.944H183.301V51.912H186.325C192.181 51.912 195.253 49.608 195.541 45H191.509C187.317 45 184.453 44.264 182.917 42.792C181.413 41.32 180.661 38.328 180.661 33.816V21.96ZM216.73 21.96H225.034C228.586 21.96 231.13 22.488 232.666 23.544C234.042 24.472 234.906 25.592 235.258 26.904C235.642 28.184 235.834 29.88 235.834 31.992V45H231.61V32.04C231.61 31.464 231.594 30.984 231.562 30.6C231.53 30.184 231.418 29.672 231.226 29.064C231.034 28.424 230.762 27.912 230.41 27.528C230.058 27.112 229.546 26.76 228.874 26.472C228.202 26.152 227.386 25.992 226.426 25.992H220.954V45H216.73V21.96ZM254.431 31.464V35.784C253.215 34.856 251.727 34.392 249.967 34.392C248.463 34.392 247.295 34.696 246.463 35.304C245.631 35.88 245.215 36.712 245.215 37.8C245.215 39.912 246.783 40.968 249.919 40.968H256.255V31.8C256.255 27.928 254.367 25.992 250.591 25.992H242.911V21.96H250.831C253.935 21.96 256.319 22.728 257.983 24.264C259.647 25.8 260.479 28.008 260.479 30.888V45H249.775C247.055 45 244.895 44.392 243.295 43.176C241.695 41.96 240.895 40.184 240.895 37.848C240.895 35.512 241.743 33.736 243.439 32.52C245.135 31.304 247.263 30.696 249.823 30.696C251.263 30.696 252.799 30.952 254.431 31.464ZM265.996 21.96H287.164C289.436 21.96 291.244 22.392 292.588 23.256C293.964 24.12 294.86 25.24 295.276 26.616C295.724 27.992 295.948 29.64 295.948 31.56V45H291.724V31.56C291.724 29.064 290.972 27.416 289.468 26.616C288.7 26.2 287.148 25.992 284.812 25.992H282.844V45H278.62V25.992H270.22V45H265.996V21.96ZM312.989 21.48C318.429 21.704 321.149 23.96 321.149 28.248C321.149 33.592 317.645 36.264 310.637 36.264H308.669V32.568H310.973C313.117 32.568 314.605 32.248 315.437 31.608C316.269 30.936 316.685 29.832 316.685 28.296C316.685 27.304 316.317 26.568 315.581 26.088C314.845 25.576 313.901 25.32 312.749 25.32C310.477 25.32 308.685 26.12 307.373 27.72C306.093 29.32 305.453 31.24 305.453 33.48C305.453 35.848 306.141 37.768 307.517 39.24C308.925 40.712 310.749 41.448 312.989 41.448C315.005 41.448 316.653 40.952 317.933 39.96L320.813 42.792C318.605 44.584 315.997 45.48 312.989 45.48C309.341 45.48 306.429 44.408 304.253 42.264C302.077 40.12 300.989 37.352 300.989 33.96C300.989 30.184 302.061 27.128 304.205 24.792C306.349 22.456 309.277 21.352 312.989 21.48ZM343.386 45H339.162V25.992H335.226L337.146 21.96H343.386V45ZM338.97 17.16C338.554 16.616 338.346 16.024 338.346 15.384C338.346 14.744 338.554 14.168 338.97 13.656C339.386 13.112 340.026 12.84 340.89 12.84C341.754 12.84 342.394 13.112 342.81 13.656C343.226 14.168 343.434 14.744 343.434 15.384C343.434 16.024 343.226 16.616 342.81 17.16C342.394 17.672 341.754 17.928 340.89 17.928C340.026 17.928 339.386 17.672 338.97 17.16ZM365.786 21.96V25.992H357.29C356.362 25.992 355.562 26.168 354.89 26.52C354.218 26.872 353.882 27.368 353.882 28.008C353.882 28.392 353.962 28.744 354.122 29.064C354.282 29.352 354.458 29.592 354.65 29.784C354.874 29.976 355.194 30.184 355.61 30.408C356.058 30.6 356.394 30.744 356.618 30.84C356.874 30.904 357.898 31.224 359.69 31.8C361.482 32.376 362.81 32.856 363.674 33.24C364.538 33.624 365.194 34.152 365.642 34.824C366.122 35.464 366.426 36.104 366.554 36.744C366.682 37.352 366.746 37.96 366.746 38.568C366.746 42.856 363.802 45 357.914 45H349.61V40.968H357.914C360.922 40.968 362.426 40.168 362.426 38.568C362.426 37.8 361.978 37.16 361.082 36.648C360.218 36.136 359.146 35.704 357.866 35.352C356.618 35 355.354 34.6 354.074 34.152C352.826 33.672 351.754 32.92 350.858 31.896C349.994 30.84 349.562 29.544 349.562 28.008C349.562 26.056 350.314 24.568 351.818 23.544C353.322 22.488 355.146 21.96 357.29 21.96H365.786ZM401.812 40.776V45H394.804C393.492 45 392.452 44.984 391.684 44.952C390.948 44.888 390.02 44.696 388.9 44.376C387.78 44.024 386.836 43.512 386.068 42.84C384.884 41.752 384.116 40.456 383.764 38.952C383.412 37.416 383.236 35.624 383.236 33.576V11.4H387.748V33.48C387.748 35.336 387.956 36.792 388.372 37.848C389.204 39.8 390.948 40.776 393.604 40.776H401.812ZM425.016 45H416.712C413.16 45 410.616 44.472 409.08 43.416C407.704 42.488 406.824 41.384 406.44 40.104C406.088 38.792 405.912 37.08 405.912 34.968V21.96H410.136V34.92C410.136 35.496 410.152 35.992 410.184 36.408C410.216 36.792 410.328 37.304 410.52 37.944C410.712 38.552 410.984 39.064 411.336 39.48C411.688 39.864 412.2 40.216 412.872 40.536C413.544 40.824 414.36 40.968 415.32 40.968H420.792V21.96H425.016V45ZM444.285 21.96H448.941L443.133 31.992C447.069 33.048 449.037 36.232 449.037 41.544V45H444.813V41.496C444.813 39.352 444.173 37.704 442.893 36.552C441.645 35.368 439.853 34.776 437.517 34.776C436.781 34.776 436.029 34.824 435.261 34.92V45H431.037V11.4H435.261V31.128C436.605 30.936 437.949 30.936 439.293 31.128L444.285 21.96ZM465.379 21.48C470.819 21.704 473.539 23.96 473.539 28.248C473.539 33.592 470.035 36.264 463.027 36.264H461.059V32.568H463.363C465.507 32.568 466.995 32.248 467.827 31.608C468.659 30.936 469.075 29.832 469.075 28.296C469.075 27.304 468.707 26.568 467.971 26.088C467.235 25.576 466.291 25.32 465.139 25.32C462.867 25.32 461.075 26.12 459.763 27.72C458.483 29.32 457.843 31.24 457.843 33.48C457.843 35.848 458.531 37.768 459.907 39.24C461.315 40.712 463.139 41.448 465.379 41.448C467.395 41.448 469.043 40.952 470.323 39.96L473.203 42.792C470.995 44.584 468.387 45.48 465.379 45.48C461.731 45.48 458.819 44.408 456.643 42.264C454.467 40.12 453.379 37.352 453.379 33.96C453.379 30.184 454.451 27.128 456.595 24.792C458.739 22.456 461.667 21.352 465.379 21.48ZM476.798 44.616C476.222 44.04 475.934 43.336 475.934 42.504C475.934 41.672 476.222 40.968 476.798 40.392C477.374 39.816 478.078 39.528 478.91 39.528C479.742 39.528 480.446 39.816 481.022 40.392C481.598 40.968 481.886 41.672 481.886 42.504C481.886 43.336 481.598 44.04 481.022 44.616C480.446 45.192 479.742 45.48 478.91 45.48C478.078 45.48 477.374 45.192 476.798 44.616Z" fill="black"/>
<path id="studentbrown" d="M384.873 185H380.361V151.4H384.873V185ZM394.443 158.84L392.043 157.304C393.259 154.936 393.963 152.968 394.155 151.4H390.891L392.811 147.368H399.099C399.099 151.848 397.547 155.672 394.443 158.84ZM404.871 161.96H426.039C428.311 161.96 430.119 162.392 431.463 163.256C432.839 164.12 433.735 165.24 434.151 166.616C434.599 167.992 434.823 169.64 434.823 171.56V185H430.599V171.56C430.599 169.064 429.847 167.416 428.343 166.616C427.575 166.2 426.023 165.992 423.687 165.992H421.719V185H417.495V165.992H409.095V185H404.871V161.96ZM464.603 171.464V175.784C463.387 174.856 461.899 174.392 460.139 174.392C458.635 174.392 457.467 174.696 456.635 175.304C455.803 175.88 455.387 176.712 455.387 177.8C455.387 179.912 456.955 180.968 460.091 180.968H466.427V171.8C466.427 167.928 464.539 165.992 460.763 165.992H453.083V161.96H461.003C464.107 161.96 466.491 162.728 468.155 164.264C469.819 165.8 470.651 168.008 470.651 170.888V185H459.947C457.227 185 455.067 184.392 453.467 183.176C451.867 181.96 451.067 180.184 451.067 177.848C451.067 175.512 451.915 173.736 453.611 172.52C455.307 171.304 457.435 170.696 459.995 170.696C461.435 170.696 462.971 170.952 464.603 171.464ZM503.115 161.96V165.992H494.619C493.691 165.992 492.891 166.168 492.219 166.52C491.547 166.872 491.211 167.368 491.211 168.008C491.211 168.392 491.291 168.744 491.451 169.064C491.611 169.352 491.787 169.592 491.979 169.784C492.203 169.976 492.523 170.184 492.939 170.408C493.387 170.6 493.723 170.744 493.947 170.84C494.203 170.904 495.227 171.224 497.019 171.8C498.811 172.376 500.139 172.856 501.003 173.24C501.867 173.624 502.523 174.152 502.971 174.824C503.451 175.464 503.755 176.104 503.883 176.744C504.011 177.352 504.075 177.96 504.075 178.568C504.075 182.856 501.131 185 495.243 185H486.939V180.968H495.243C498.251 180.968 499.755 180.168 499.755 178.568C499.755 177.8 499.307 177.16 498.411 176.648C497.547 176.136 496.475 175.704 495.195 175.352C493.947 175 492.683 174.6 491.403 174.152C490.155 173.672 489.083 172.92 488.187 171.896C487.323 170.84 486.891 169.544 486.891 168.008C486.891 166.056 487.643 164.568 489.147 163.544C490.651 162.488 492.475 161.96 494.619 161.96H503.115ZM506.481 165.992L515.073 157.4V161.96H521.553V165.992H515.073V175.88C515.073 177 515.249 177.928 515.601 178.664C515.985 179.4 516.529 179.928 517.233 180.248C517.937 180.536 518.593 180.728 519.201 180.824C519.841 180.92 520.625 180.968 521.553 180.968V185C517.873 185 515.153 184.296 513.393 182.888C511.633 181.48 510.753 179.144 510.753 175.88V165.992H506.481ZM545.235 185H536.931C533.379 185 530.835 184.472 529.299 183.416C527.923 182.488 527.043 181.384 526.659 180.104C526.307 178.792 526.131 177.08 526.131 174.968V161.96H530.355V174.92C530.355 175.496 530.371 175.992 530.403 176.408C530.435 176.792 530.547 177.304 530.739 177.944C530.931 178.552 531.203 179.064 531.555 179.48C531.907 179.864 532.419 180.216 533.091 180.536C533.763 180.824 534.579 180.968 535.539 180.968H541.011V161.96H545.235V185ZM569.256 151.4H573.576V185H562.296C558.808 185 555.976 183.896 553.8 181.688C551.624 179.448 550.536 176.632 550.536 173.24C550.536 169.912 551.656 167.128 553.896 164.888C556.168 162.616 558.856 161.48 561.96 161.48C563.944 161.48 565.8 161.96 567.528 162.92V167.24C565.928 166.088 564.072 165.512 561.96 165.512C560.04 165.512 558.408 166.232 557.064 167.672C555.752 169.08 555.096 170.936 555.096 173.24C555.096 175.576 555.72 177.448 556.968 178.856C558.248 180.264 560.024 180.968 562.296 180.968H569.256V151.4ZM590.614 161.48C596.054 161.704 598.774 163.96 598.774 168.248C598.774 173.592 595.27 176.264 588.262 176.264H586.294V172.568H588.598C590.742 172.568 592.23 172.248 593.062 171.608C593.894 170.936 594.31 169.832 594.31 168.296C594.31 167.304 593.942 166.568 593.206 166.088C592.47 165.576 591.526 165.32 590.374 165.32C588.102 165.32 586.31 166.12 584.998 167.72C583.718 169.32 583.078 171.24 583.078 173.48C583.078 175.848 583.766 177.768 585.142 179.24C586.55 180.712 588.374 181.448 590.614 181.448C592.63 181.448 594.278 180.952 595.558 179.96L598.438 182.792C596.23 184.584 593.622 185.48 590.614 185.48C586.966 185.48 584.054 184.408 581.878 182.264C579.702 180.12 578.614 177.352 578.614 173.96C578.614 170.184 579.686 167.128 581.83 164.792C583.974 162.456 586.902 161.352 590.614 161.48ZM603.808 161.96H612.112C615.664 161.96 618.208 162.488 619.744 163.544C621.12 164.472 621.984 165.592 622.336 166.904C622.72 168.184 622.912 169.88 622.912 171.992V185H618.688V172.04C618.688 171.464 618.672 170.984 618.64 170.6C618.608 170.184 618.496 169.672 618.304 169.064C618.112 168.424 617.84 167.912 617.488 167.528C617.136 167.112 616.624 166.76 615.952 166.472C615.28 166.152 614.464 165.992 613.504 165.992H608.032V185H603.808V161.96ZM626.293 165.992L634.885 157.4V161.96H641.365V165.992H634.885V175.88C634.885 177 635.061 177.928 635.413 178.664C635.797 179.4 636.341 179.928 637.045 180.248C637.749 180.536 638.405 180.728 639.013 180.824C639.653 180.92 640.437 180.968 641.365 180.968V185C637.685 185 634.965 184.296 633.205 182.888C631.445 181.48 630.565 179.144 630.565 175.88V165.992H626.293ZM669.962 171.464V175.784C668.746 174.856 667.258 174.392 665.498 174.392C663.994 174.392 662.826 174.696 661.994 175.304C661.162 175.88 660.746 176.712 660.746 177.8C660.746 179.912 662.314 180.968 665.45 180.968H671.786V171.8C671.786 167.928 669.898 165.992 666.122 165.992H658.442V161.96H666.362C669.466 161.96 671.85 162.728 673.514 164.264C675.178 165.8 676.01 168.008 676.01 170.888V185H665.306C662.586 185 660.426 184.392 658.826 183.176C657.226 181.96 656.426 180.184 656.426 177.848C656.426 175.512 657.274 173.736 658.97 172.52C660.666 171.304 662.794 170.696 665.354 170.696C666.794 170.696 668.33 170.952 669.962 171.464ZM678.887 165.992L687.479 157.4V161.96H693.959V165.992H687.479V175.88C687.479 177 687.655 177.928 688.007 178.664C688.391 179.4 688.935 179.928 689.639 180.248C690.343 180.536 690.999 180.728 691.607 180.824C692.247 180.92 693.031 180.968 693.959 180.968V185C690.279 185 687.559 184.296 685.799 182.888C684.039 181.48 683.159 179.144 683.159 175.88V165.992H678.887ZM714.444 185H709.98V162.104C709.98 158.808 711.036 156.12 713.148 154.04C715.292 151.96 717.932 150.92 721.068 150.92C724.524 150.92 727.116 151.8 728.844 153.56C730.604 155.288 731.484 157.416 731.484 159.944C731.484 163.176 729.98 165.496 726.972 166.904V167.096C731.1 168.28 733.164 171.144 733.164 175.688C733.164 181.896 729.5 185 722.172 185H716.172V180.776H722.124C724.332 180.776 725.948 180.328 726.972 179.432C727.996 178.536 728.508 177.096 728.508 175.112C728.508 173.384 727.948 172.056 726.828 171.128C725.74 170.2 724.252 169.736 722.364 169.736H717.612V165.752H720.684C722.412 165.752 723.884 165.288 725.1 164.36C726.348 163.4 726.972 162.12 726.972 160.52C726.972 158.984 726.492 157.704 725.532 156.68C724.604 155.656 723.084 155.144 720.972 155.144C719.052 155.144 717.484 155.752 716.268 156.968C715.052 158.152 714.444 159.896 714.444 162.2V185ZM737.473 185V171.896C737.473 168.216 738.161 165.672 739.537 164.264C740.209 163.56 741.025 163.032 741.985 162.68C742.945 162.328 743.777 162.12 744.481 162.056C745.217 161.992 746.209 161.96 747.457 161.96H751.681V165.992H746.593C745.953 165.992 745.457 166.008 745.105 166.04C744.753 166.072 744.337 166.184 743.857 166.376C743.377 166.568 742.961 166.872 742.609 167.288C742.001 168.056 741.697 169.592 741.697 171.896V185H737.473ZM757.427 164.984C759.667 162.648 762.467 161.48 765.827 161.48C767.459 161.48 768.979 161.8 770.387 162.44C771.827 163.048 773.075 163.896 774.131 164.984C775.219 166.072 776.067 167.352 776.675 168.824C777.283 170.264 777.587 171.816 777.587 173.48C777.587 175.144 777.283 176.712 776.675 178.184C776.099 179.624 775.283 180.888 774.227 181.976C773.171 183.064 771.923 183.928 770.483 184.568C769.043 185.176 767.491 185.48 765.827 185.48C764.131 185.48 762.563 185.176 761.123 184.568C759.715 183.928 758.483 183.064 757.427 181.976C756.371 180.888 755.539 179.624 754.931 178.184C754.355 176.712 754.067 175.144 754.067 173.48C754.067 170.088 755.187 167.256 757.427 164.984ZM765.827 165.512C763.587 165.512 761.779 166.248 760.403 167.72C759.059 169.192 758.387 171.112 758.387 173.48C758.387 175.848 759.059 177.768 760.403 179.24C761.779 180.712 763.587 181.448 765.827 181.448C768.099 181.448 769.907 180.712 771.251 179.24C772.595 177.736 773.267 175.816 773.267 173.48C773.267 171.144 772.595 169.24 771.251 167.768C769.907 166.264 768.099 165.512 765.827 165.512ZM802.839 185.48C800.471 183.656 798.887 181.816 798.087 179.96C797.287 178.104 796.695 175.368 796.311 171.752H795.831C795.447 175.368 794.855 178.104 794.055 179.96C793.255 181.816 791.671 183.656 789.303 185.48C787.095 184.392 785.335 182.424 784.023 179.576C782.743 176.728 781.991 173.208 781.767 169.016L781.431 161.96H785.703L786.087 168.824C786.375 174.072 787.415 177.88 789.207 180.248C789.687 179.704 790.135 179.096 790.551 178.424C790.967 177.752 791.319 177.016 791.607 176.216C791.895 175.384 792.135 174.664 792.327 174.056C792.551 173.416 792.743 172.616 792.903 171.656C793.095 170.664 793.223 169.944 793.287 169.496C793.351 169.048 793.431 168.328 793.527 167.336C793.655 166.344 793.735 165.784 793.767 165.656H798.375C798.407 165.784 798.471 166.344 798.567 167.336C798.695 168.328 798.791 169.048 798.855 169.496C798.919 169.944 799.031 170.664 799.191 171.656C799.383 172.616 799.575 173.416 799.767 174.056C799.991 174.664 800.247 175.384 800.535 176.216C800.823 177.016 801.175 177.752 801.591 178.424C802.007 179.096 802.455 179.704 802.935 180.248C804.727 177.88 805.767 174.072 806.055 168.824L806.439 161.96H810.711L810.375 169.016C810.151 173.208 809.383 176.728 808.071 179.576C806.791 182.424 805.047 184.392 802.839 185.48ZM815.496 161.96H823.8C827.352 161.96 829.896 162.488 831.432 163.544C832.808 164.472 833.672 165.592 834.024 166.904C834.408 168.184 834.6 169.88 834.6 171.992V185H830.376V172.04C830.376 171.464 830.36 170.984 830.328 170.6C830.296 170.184 830.184 169.672 829.992 169.064C829.8 168.424 829.528 167.912 829.176 167.528C828.824 167.112 828.312 166.76 827.64 166.472C826.968 166.152 826.152 165.992 825.192 165.992H819.72V185H815.496V161.96ZM870.976 151.4H875.488V174.44C875.488 178.248 874.496 181.048 872.512 182.84C870.56 184.6 867.6 185.48 863.632 185.48C859.664 185.48 856.704 184.6 854.752 182.84C852.8 181.048 851.824 178.248 851.824 174.44V151.4H856.336V175.064C856.336 177.24 856.992 178.824 858.304 179.816C859.648 180.776 861.408 181.256 863.584 181.256C865.824 181.256 867.616 180.776 868.96 179.816C870.304 178.824 870.976 177.24 870.976 175.064V151.4ZM881.73 161.96H890.034C893.586 161.96 896.13 162.488 897.666 163.544C899.042 164.472 899.906 165.592 900.258 166.904C900.642 168.184 900.834 169.88 900.834 171.992V185H896.61V172.04C896.61 171.464 896.594 170.984 896.562 170.6C896.53 170.184 896.418 169.672 896.226 169.064C896.034 168.424 895.762 167.912 895.41 167.528C895.058 167.112 894.546 166.76 893.874 166.472C893.202 166.152 892.386 165.992 891.426 165.992H885.954V185H881.73V161.96ZM912.855 185H908.631V165.992H904.695L906.615 161.96H912.855V185ZM908.439 157.16C908.023 156.616 907.815 156.024 907.815 155.384C907.815 154.744 908.023 154.168 908.439 153.656C908.855 153.112 909.495 152.84 910.359 152.84C911.223 152.84 911.863 153.112 912.279 153.656C912.695 154.168 912.903 154.744 912.903 155.384C912.903 156.024 912.695 156.616 912.279 157.16C911.863 157.672 911.223 157.928 910.359 157.928C909.495 157.928 908.855 157.672 908.439 157.16ZM927.527 185.528C924.775 182.936 922.743 180.072 921.431 176.936C920.151 173.8 918.871 168.808 917.591 161.96H922.007C923.255 169.672 925.095 175.512 927.527 179.48C929.959 175.512 931.799 169.672 933.047 161.96H937.463C936.183 168.808 934.887 173.8 933.575 176.936C932.295 180.072 930.279 182.936 927.527 185.528ZM940.001 184.616C939.425 184.04 939.137 183.336 939.137 182.504C939.137 181.672 939.425 180.968 940.001 180.392C940.577 179.816 941.281 179.528 942.113 179.528C942.945 179.528 943.649 179.816 944.225 180.392C944.801 180.968 945.089 181.672 945.089 182.504C945.089 183.336 944.801 184.04 944.225 184.616C943.649 185.192 942.945 185.48 942.113 185.48C941.281 185.48 940.577 185.192 940.001 184.616Z" fill="black"/>
<path id="studycs" d="M203.873 386H199.361V352.4H203.873V386ZM237.318 362.96V366.992H228.822C227.894 366.992 227.094 367.168 226.422 367.52C225.75 367.872 225.414 368.368 225.414 369.008C225.414 369.392 225.494 369.744 225.654 370.064C225.814 370.352 225.99 370.592 226.182 370.784C226.406 370.976 226.726 371.184 227.142 371.408C227.59 371.6 227.926 371.744 228.15 371.84C228.406 371.904 229.43 372.224 231.222 372.8C233.014 373.376 234.342 373.856 235.206 374.24C236.07 374.624 236.726 375.152 237.174 375.824C237.654 376.464 237.958 377.104 238.086 377.744C238.214 378.352 238.278 378.96 238.278 379.568C238.278 383.856 235.334 386 229.446 386H221.142V381.968H229.446C232.454 381.968 233.958 381.168 233.958 379.568C233.958 378.8 233.51 378.16 232.614 377.648C231.75 377.136 230.678 376.704 229.398 376.352C228.15 376 226.886 375.6 225.606 375.152C224.358 374.672 223.286 373.92 222.39 372.896C221.526 371.84 221.094 370.544 221.094 369.008C221.094 367.056 221.846 365.568 223.35 364.544C224.854 363.488 226.678 362.96 228.822 362.96H237.318ZM240.684 366.992L249.276 358.4V362.96H255.756V366.992H249.276V376.88C249.276 378 249.452 378.928 249.804 379.664C250.188 380.4 250.732 380.928 251.436 381.248C252.14 381.536 252.796 381.728 253.404 381.824C254.044 381.92 254.828 381.968 255.756 381.968V386C252.076 386 249.356 385.296 247.596 383.888C245.836 382.48 244.956 380.144 244.956 376.88V366.992H240.684ZM279.438 386H271.134C267.582 386 265.038 385.472 263.502 384.416C262.126 383.488 261.246 382.384 260.862 381.104C260.51 379.792 260.334 378.08 260.334 375.968V362.96H264.558V375.92C264.558 376.496 264.574 376.992 264.606 377.408C264.638 377.792 264.75 378.304 264.942 378.944C265.134 379.552 265.406 380.064 265.758 380.48C266.11 380.864 266.622 381.216 267.294 381.536C267.966 381.824 268.782 381.968 269.742 381.968H275.214V362.96H279.438V386ZM303.459 352.4H307.779V386H296.499C293.011 386 290.179 384.896 288.003 382.688C285.827 380.448 284.739 377.632 284.739 374.24C284.739 370.912 285.859 368.128 288.099 365.888C290.371 363.616 293.059 362.48 296.163 362.48C298.147 362.48 300.003 362.96 301.731 363.92V368.24C300.131 367.088 298.275 366.512 296.163 366.512C294.243 366.512 292.611 367.232 291.267 368.672C289.955 370.08 289.299 371.936 289.299 374.24C289.299 376.576 289.923 378.448 291.171 379.856C292.451 381.264 294.227 381.968 296.499 381.968H303.459V352.4ZM312.817 362.96H317.041V375.008C317.041 377.6 317.441 379.408 318.241 380.432C319.041 381.456 320.513 381.968 322.657 381.968H327.697V362.96H331.921V384.848C331.921 388.848 330.865 391.856 328.753 393.872C326.673 395.92 323.393 396.944 318.913 396.944H315.457V392.912H318.481C324.337 392.912 327.409 390.608 327.697 386H323.665C319.473 386 316.609 385.264 315.073 383.792C313.569 382.32 312.817 379.328 312.817 374.816V362.96ZM348.646 369.2C348.678 363.856 350.15 359.728 353.062 356.816C356.006 353.872 360.054 352.4 365.206 352.4H368.326V356.624H364.63C361.078 356.624 358.342 357.808 356.422 360.176C354.534 362.512 353.558 365.52 353.494 369.2C353.558 372.88 354.534 375.904 356.422 378.272C358.342 380.608 361.078 381.776 364.63 381.776H368.326V386H365.206C360.054 386 356.006 384.544 353.062 381.632C350.15 378.688 348.678 374.544 348.646 369.2ZM376.505 365.984C378.745 363.648 381.545 362.48 384.905 362.48C386.537 362.48 388.057 362.8 389.465 363.44C390.905 364.048 392.153 364.896 393.209 365.984C394.297 367.072 395.145 368.352 395.753 369.824C396.361 371.264 396.665 372.816 396.665 374.48C396.665 376.144 396.361 377.712 395.753 379.184C395.177 380.624 394.361 381.888 393.305 382.976C392.249 384.064 391.001 384.928 389.561 385.568C388.121 386.176 386.569 386.48 384.905 386.48C383.209 386.48 381.641 386.176 380.201 385.568C378.793 384.928 377.561 384.064 376.505 382.976C375.449 381.888 374.617 380.624 374.009 379.184C373.433 377.712 373.145 376.144 373.145 374.48C373.145 371.088 374.265 368.256 376.505 365.984ZM384.905 366.512C382.665 366.512 380.857 367.248 379.481 368.72C378.137 370.192 377.465 372.112 377.465 374.48C377.465 376.848 378.137 378.768 379.481 380.24C380.857 381.712 382.665 382.448 384.905 382.448C387.177 382.448 388.985 381.712 390.329 380.24C391.673 378.736 392.345 376.816 392.345 374.48C392.345 372.144 391.673 370.24 390.329 368.768C388.985 367.264 387.177 366.512 384.905 366.512ZM401.949 362.96H423.117C425.389 362.96 427.197 363.392 428.541 364.256C429.917 365.12 430.813 366.24 431.229 367.616C431.677 368.992 431.901 370.64 431.901 372.56V386H427.677V372.56C427.677 370.064 426.925 368.416 425.421 367.616C424.653 367.2 423.101 366.992 420.765 366.992H418.797V386H414.573V366.992H406.173V386H401.949V362.96ZM437.662 396.944V374.48C437.662 372.816 437.966 371.248 438.574 369.776C439.182 368.304 440.014 367.04 441.07 365.984C442.126 364.896 443.374 364.048 444.814 363.44C446.254 362.8 447.79 362.48 449.422 362.48C451.054 362.48 452.574 362.8 453.982 363.44C455.422 364.048 456.67 364.896 457.726 365.984C458.814 367.072 459.662 368.352 460.27 369.824C460.878 371.264 461.182 372.816 461.182 374.48C461.182 376.144 460.878 377.712 460.27 379.184C459.694 380.624 458.878 381.888 457.822 382.976C456.766 384.064 455.518 384.928 454.078 385.568C452.638 386.176 451.086 386.48 449.422 386.48C447.374 386.48 445.47 386 443.71 385.04V380.72C445.278 381.872 447.134 382.448 449.278 382.448C450.43 382.448 451.47 382.256 452.398 381.872C453.358 381.456 454.158 380.896 454.798 380.192C455.47 379.488 455.982 378.656 456.334 377.696C456.686 376.704 456.862 375.632 456.862 374.48C456.862 373.328 456.686 372.272 456.334 371.312C455.982 370.32 455.486 369.472 454.846 368.768C454.206 368.064 453.422 367.52 452.494 367.136C451.598 366.72 450.574 366.512 449.422 366.512C448.302 366.512 447.278 366.704 446.35 367.088C445.454 367.472 444.67 368.016 443.998 368.72C443.358 369.424 442.862 370.272 442.51 371.264C442.158 372.224 441.982 373.296 441.982 374.48V396.944H437.662ZM485.313 386H477.009C473.457 386 470.913 385.472 469.377 384.416C468.001 383.488 467.121 382.384 466.737 381.104C466.385 379.792 466.209 378.08 466.209 375.968V362.96H470.433V375.92C470.433 376.496 470.449 376.992 470.481 377.408C470.513 377.792 470.625 378.304 470.817 378.944C471.009 379.552 471.281 380.064 471.633 380.48C471.985 380.864 472.497 381.216 473.169 381.536C473.841 381.824 474.657 381.968 475.617 381.968H481.089V362.96H485.313V386ZM488.934 366.992L497.526 358.4V362.96H504.006V366.992H497.526V376.88C497.526 378 497.702 378.928 498.054 379.664C498.438 380.4 498.982 380.928 499.686 381.248C500.39 381.536 501.046 381.728 501.654 381.824C502.294 381.92 503.078 381.968 504.006 381.968V386C500.326 386 497.606 385.296 495.846 383.888C494.086 382.48 493.206 380.144 493.206 376.88V366.992H488.934ZM519.864 362.48C525.304 362.704 528.024 364.96 528.024 369.248C528.024 374.592 524.52 377.264 517.512 377.264H515.544V373.568H517.848C519.992 373.568 521.48 373.248 522.312 372.608C523.144 371.936 523.56 370.832 523.56 369.296C523.56 368.304 523.192 367.568 522.456 367.088C521.72 366.576 520.776 366.32 519.624 366.32C517.352 366.32 515.56 367.12 514.248 368.72C512.968 370.32 512.328 372.24 512.328 374.48C512.328 376.848 513.016 378.768 514.392 380.24C515.8 381.712 517.624 382.448 519.864 382.448C521.88 382.448 523.528 381.952 524.808 380.96L527.688 383.792C525.48 385.584 522.872 386.48 519.864 386.48C516.216 386.48 513.304 385.408 511.128 383.264C508.952 381.12 507.864 378.352 507.864 374.96C507.864 371.184 508.936 368.128 511.08 365.792C513.224 363.456 516.152 362.352 519.864 362.48ZM532.098 386V372.896C532.098 369.216 532.786 366.672 534.162 365.264C534.834 364.56 535.65 364.032 536.61 363.68C537.57 363.328 538.402 363.12 539.106 363.056C539.842 362.992 540.834 362.96 542.082 362.96H546.306V366.992H541.218C540.578 366.992 540.082 367.008 539.73 367.04C539.378 367.072 538.962 367.184 538.482 367.376C538.002 367.568 537.586 367.872 537.234 368.288C536.626 369.056 536.322 370.592 536.322 372.896V386H532.098ZM578.039 352.4V356.624H569.543C566.311 356.624 564.695 357.936 564.695 360.56C564.695 361.968 565.399 363.168 566.807 364.16C568.247 365.12 570.183 366.048 572.615 366.944C573.703 367.36 574.631 367.792 575.399 368.24C576.167 368.656 576.935 369.216 577.703 369.92C578.471 370.624 579.047 371.536 579.431 372.656C579.815 373.744 580.007 375.008 580.007 376.448C580.007 378.048 579.671 379.488 578.999 380.768C578.327 382.016 577.463 383.008 576.407 383.744C575.351 384.448 574.263 384.992 573.143 385.376C572.055 385.728 570.983 385.92 569.927 385.952C569.479 385.984 568.839 386 568.007 386H560.519V381.776H567.863C570.039 381.776 571.815 381.328 573.191 380.432C574.567 379.504 575.255 378.16 575.255 376.4C575.255 375.536 575.063 374.784 574.679 374.144C574.295 373.472 573.735 372.896 572.999 372.416C572.295 371.936 571.559 371.52 570.791 371.168C570.055 370.816 569.159 370.448 568.103 370.064C567.815 369.968 567.591 369.888 567.431 369.824C562.407 367.904 559.895 364.768 559.895 360.416C559.895 357.728 560.759 355.728 562.487 354.416C564.215 353.072 566.471 352.4 569.255 352.4H578.039ZM600.546 380.96L603.426 383.792C601.218 385.584 598.69 386.48 595.842 386.48C592.29 386.48 589.442 385.344 587.298 383.072C585.154 380.768 584.082 377.904 584.082 374.48C584.082 371.12 585.202 368.288 587.442 365.984C589.714 363.648 592.514 362.48 595.842 362.48C598.69 362.48 601.218 363.376 603.426 365.168L600.594 368.048C599.25 367.024 597.666 366.512 595.842 366.512C593.634 366.512 591.874 367.248 590.562 368.72C589.282 370.16 588.642 372.08 588.642 374.48C588.642 376.88 589.282 378.816 590.562 380.288C591.874 381.728 593.634 382.448 595.842 382.448C597.698 382.448 599.266 381.952 600.546 380.96ZM613.73 386H609.506V366.992H605.57L607.49 362.96H613.73V386ZM609.314 358.16C608.898 357.616 608.69 357.024 608.69 356.384C608.69 355.744 608.898 355.168 609.314 354.656C609.73 354.112 610.37 353.84 611.234 353.84C612.098 353.84 612.738 354.112 613.154 354.656C613.57 355.168 613.778 355.744 613.778 356.384C613.778 357.024 613.57 357.616 613.154 358.16C612.738 358.672 612.098 358.928 611.234 358.928C610.37 358.928 609.73 358.672 609.314 358.16ZM631.426 362.48C636.866 362.704 639.586 364.96 639.586 369.248C639.586 374.592 636.082 377.264 629.074 377.264H627.106V373.568H629.41C631.554 373.568 633.042 373.248 633.874 372.608C634.706 371.936 635.122 370.832 635.122 369.296C635.122 368.304 634.754 367.568 634.018 367.088C633.282 366.576 632.338 366.32 631.186 366.32C628.914 366.32 627.122 367.12 625.81 368.72C624.53 370.32 623.89 372.24 623.89 374.48C623.89 376.848 624.578 378.768 625.954 380.24C627.362 381.712 629.186 382.448 631.426 382.448C633.442 382.448 635.09 381.952 636.37 380.96L639.25 383.792C637.042 385.584 634.434 386.48 631.426 386.48C627.778 386.48 624.866 385.408 622.69 383.264C620.514 381.12 619.426 378.352 619.426 374.96C619.426 371.184 620.498 368.128 622.642 365.792C624.786 363.456 627.714 362.352 631.426 362.48ZM644.621 362.96H652.925C656.477 362.96 659.021 363.488 660.557 364.544C661.933 365.472 662.797 366.592 663.149 367.904C663.533 369.184 663.725 370.88 663.725 372.992V386H659.501V373.04C659.501 372.464 659.485 371.984 659.453 371.6C659.421 371.184 659.309 370.672 659.117 370.064C658.925 369.424 658.653 368.912 658.301 368.528C657.949 368.112 657.437 367.76 656.765 367.472C656.093 367.152 655.277 366.992 654.317 366.992H648.845V386H644.621V362.96ZM685.25 380.96L688.13 383.792C685.922 385.584 683.394 386.48 680.546 386.48C676.994 386.48 674.146 385.344 672.002 383.072C669.858 380.768 668.786 377.904 668.786 374.48C668.786 371.12 669.906 368.288 672.146 365.984C674.418 363.648 677.218 362.48 680.546 362.48C683.394 362.48 685.922 363.376 688.13 365.168L685.298 368.048C683.954 367.024 682.37 366.512 680.546 366.512C678.338 366.512 676.578 367.248 675.266 368.72C673.986 370.16 673.346 372.08 673.346 374.48C673.346 376.88 673.986 378.816 675.266 380.288C676.578 381.728 678.338 382.448 680.546 382.448C682.402 382.448 683.97 381.952 685.25 380.96ZM703.473 362.48C708.913 362.704 711.633 364.96 711.633 369.248C711.633 374.592 708.129 377.264 701.121 377.264H699.153V373.568H701.457C703.601 373.568 705.089 373.248 705.921 372.608C706.753 371.936 707.169 370.832 707.169 369.296C707.169 368.304 706.801 367.568 706.065 367.088C705.329 366.576 704.385 366.32 703.233 366.32C700.961 366.32 699.169 367.12 697.857 368.72C696.577 370.32 695.937 372.24 695.937 374.48C695.937 376.848 696.625 378.768 698.001 380.24C699.409 381.712 701.233 382.448 703.473 382.448C705.489 382.448 707.137 381.952 708.417 380.96L711.297 383.792C709.089 385.584 706.481 386.48 703.473 386.48C699.825 386.48 696.913 385.408 694.737 383.264C692.561 381.12 691.473 378.352 691.473 374.96C691.473 371.184 692.545 368.128 694.689 365.792C696.833 363.456 699.761 362.352 703.473 362.48ZM740.447 372.464V376.784C739.231 375.856 737.743 375.392 735.983 375.392C734.479 375.392 733.311 375.696 732.479 376.304C731.647 376.88 731.231 377.712 731.231 378.8C731.231 380.912 732.799 381.968 735.935 381.968H742.271V372.8C742.271 368.928 740.383 366.992 736.607 366.992H728.927V362.96H736.847C739.951 362.96 742.335 363.728 743.999 365.264C745.663 366.8 746.495 369.008 746.495 371.888V386H735.791C733.071 386 730.911 385.392 729.311 384.176C727.711 382.96 726.911 381.184 726.911 378.848C726.911 376.512 727.759 374.736 729.455 373.52C731.151 372.304 733.279 371.696 735.839 371.696C737.279 371.696 738.815 371.952 740.447 372.464ZM752.011 362.96H760.315C763.867 362.96 766.411 363.488 767.947 364.544C769.323 365.472 770.187 366.592 770.539 367.904C770.923 369.184 771.115 370.88 771.115 372.992V386H766.891V373.04C766.891 372.464 766.875 371.984 766.843 371.6C766.811 371.184 766.699 370.672 766.507 370.064C766.315 369.424 766.043 368.912 765.691 368.528C765.339 368.112 764.827 367.76 764.155 367.472C763.483 367.152 762.667 366.992 761.707 366.992H756.235V386H752.011V362.96ZM794.896 352.4H799.216V386H787.936C784.448 386 781.616 384.896 779.44 382.688C777.264 380.448 776.176 377.632 776.176 374.24C776.176 370.912 777.296 368.128 779.536 365.888C781.808 363.616 784.496 362.48 787.6 362.48C789.584 362.48 791.44 362.96 793.168 363.92V368.24C791.568 367.088 789.712 366.512 787.6 366.512C785.68 366.512 784.048 367.232 782.704 368.672C781.392 370.08 780.736 371.936 780.736 374.24C780.736 376.576 781.36 378.448 782.608 379.856C783.888 381.264 785.664 381.968 787.936 381.968H794.896V352.4Z" fill="black"/>
<path id="mcm" d="M557.961 638.584H558.249L562.185 623.752C563.017 620.552 564.297 618.36 566.025 617.176C567.753 615.992 570.361 615.4 573.849 615.4V649H569.337V620.488C568.505 620.84 567.865 621.336 567.417 621.976C567.001 622.616 566.601 623.576 566.217 624.856L560.217 645.448H555.993L549.945 624.856C549.561 623.544 549.161 622.584 548.745 621.976C548.329 621.336 547.705 620.84 546.873 620.488V649H542.361V615.4C545.849 615.4 548.441 616.008 550.137 617.224C551.865 618.408 553.161 620.584 554.025 623.752L557.961 638.584ZM582.724 628.984C584.964 626.648 587.764 625.48 591.124 625.48C592.756 625.48 594.276 625.8 595.684 626.44C597.124 627.048 598.372 627.896 599.428 628.984C600.516 630.072 601.364 631.352 601.972 632.824C602.58 634.264 602.884 635.816 602.884 637.48C602.884 639.144 602.58 640.712 601.972 642.184C601.396 643.624 600.58 644.888 599.524 645.976C598.468 647.064 597.22 647.928 595.78 648.568C594.34 649.176 592.788 649.48 591.124 649.48C589.428 649.48 587.86 649.176 586.42 648.568C585.012 647.928 583.78 647.064 582.724 645.976C581.668 644.888 580.836 643.624 580.228 642.184C579.652 640.712 579.364 639.144 579.364 637.48C579.364 634.088 580.484 631.256 582.724 628.984ZM591.124 629.512C588.884 629.512 587.076 630.248 585.7 631.72C584.356 633.192 583.684 635.112 583.684 637.48C583.684 639.848 584.356 641.768 585.7 643.24C587.076 644.712 588.884 645.448 591.124 645.448C593.396 645.448 595.204 644.712 596.548 643.24C597.892 641.736 598.564 639.816 598.564 637.48C598.564 635.144 597.892 633.24 596.548 631.768C595.204 630.264 593.396 629.512 591.124 629.512ZM625.927 615.4H630.247V649H618.967C615.479 649 612.647 647.896 610.471 645.688C608.295 643.448 607.207 640.632 607.207 637.24C607.207 633.912 608.327 631.128 610.567 628.888C612.839 626.616 615.527 625.48 618.631 625.48C620.615 625.48 622.471 625.96 624.199 626.92V631.24C622.599 630.088 620.743 629.512 618.631 629.512C616.711 629.512 615.079 630.232 613.735 631.672C612.423 633.08 611.767 634.936 611.767 637.24C611.767 639.576 612.391 641.448 613.639 642.856C614.919 644.264 616.695 644.968 618.967 644.968H625.927V615.4ZM647.286 625.48C652.726 625.704 655.446 627.96 655.446 632.248C655.446 637.592 651.942 640.264 644.934 640.264H642.966V636.568H645.27C647.414 636.568 648.902 636.248 649.734 635.608C650.566 634.936 650.982 633.832 650.982 632.296C650.982 631.304 650.614 630.568 649.878 630.088C649.142 629.576 648.198 629.32 647.046 629.32C644.774 629.32 642.982 630.12 641.67 631.72C640.39 633.32 639.75 635.24 639.75 637.48C639.75 639.848 640.438 641.768 641.814 643.24C643.222 644.712 645.046 645.448 647.286 645.448C649.302 645.448 650.95 644.952 652.23 643.96L655.11 646.792C652.902 648.584 650.294 649.48 647.286 649.48C643.638 649.48 640.726 648.408 638.55 646.264C636.374 644.12 635.286 641.352 635.286 637.96C635.286 634.184 636.358 631.128 638.502 628.792C640.646 626.456 643.574 625.352 647.286 625.48ZM659.52 649V635.896C659.52 632.216 660.208 629.672 661.584 628.264C662.256 627.56 663.072 627.032 664.032 626.68C664.992 626.328 665.824 626.12 666.528 626.056C667.264 625.992 668.256 625.96 669.504 625.96H673.728V629.992H668.64C668 629.992 667.504 630.008 667.152 630.04C666.8 630.072 666.384 630.184 665.904 630.376C665.424 630.568 665.008 630.872 664.656 631.288C664.048 632.056 663.744 633.592 663.744 635.896V649H659.52ZM677.074 625.96H685.378C688.93 625.96 691.474 626.488 693.01 627.544C694.386 628.472 695.25 629.592 695.602 630.904C695.986 632.184 696.178 633.88 696.178 635.992V649H691.954V636.04C691.954 635.464 691.938 634.984 691.906 634.6C691.874 634.184 691.762 633.672 691.57 633.064C691.378 632.424 691.106 631.912 690.754 631.528C690.402 631.112 689.89 630.76 689.218 630.472C688.546 630.152 687.73 629.992 686.77 629.992H681.298V649H677.074V625.96ZM713.162 632.2C713.194 626.856 714.666 622.728 717.578 619.816C720.522 616.872 724.57 615.4 729.722 615.4H732.842V619.624H729.146C725.594 619.624 722.858 620.808 720.938 623.176C719.05 625.512 718.074 628.52 718.01 632.2C718.074 635.88 719.05 638.904 720.938 641.272C722.858 643.608 725.594 644.776 729.146 644.776H732.842V649H729.722C724.57 649 720.522 647.544 717.578 644.632C714.666 641.688 713.194 637.544 713.162 632.2ZM757.485 649H749.181C745.629 649 743.085 648.472 741.549 647.416C740.173 646.488 739.293 645.384 738.909 644.104C738.557 642.792 738.381 641.08 738.381 638.968V625.96H742.605V638.92C742.605 639.496 742.621 639.992 742.653 640.408C742.685 640.792 742.797 641.304 742.989 641.944C743.181 642.552 743.453 643.064 743.805 643.48C744.157 643.864 744.669 644.216 745.341 644.536C746.013 644.824 746.829 644.968 747.789 644.968H753.261V625.96H757.485V649ZM763.506 639.88V615.4H767.826V639.88C767.826 641.032 767.954 641.976 768.21 642.712C768.498 643.416 768.93 643.928 769.506 644.248C770.082 644.536 770.642 644.728 771.186 644.824C771.73 644.92 772.45 644.968 773.346 644.968V649C769.762 649 767.218 648.312 765.714 646.936C764.242 645.56 763.506 643.208 763.506 639.88ZM774.043 629.992L782.635 621.4V625.96H789.115V629.992H782.635V639.88C782.635 641 782.811 641.928 783.163 642.664C783.547 643.4 784.091 643.928 784.795 644.248C785.499 644.536 786.155 644.728 786.763 644.824C787.403 644.92 788.187 644.968 789.115 644.968V649C785.435 649 782.715 648.296 780.955 646.888C779.195 645.48 778.315 643.144 778.315 639.88V629.992H774.043ZM812.797 649H804.493C800.941 649 798.397 648.472 796.861 647.416C795.485 646.488 794.605 645.384 794.221 644.104C793.869 642.792 793.693 641.08 793.693 638.968V625.96H797.917V638.92C797.917 639.496 797.933 639.992 797.965 640.408C797.997 640.792 798.109 641.304 798.301 641.944C798.493 642.552 798.765 643.064 799.117 643.48C799.469 643.864 799.981 644.216 800.653 644.536C801.325 644.824 802.141 644.968 803.101 644.968H808.573V625.96H812.797V649ZM818.098 649V635.896C818.098 632.216 818.786 629.672 820.162 628.264C820.834 627.56 821.65 627.032 822.61 626.68C823.57 626.328 824.402 626.12 825.106 626.056C825.842 625.992 826.834 625.96 828.082 625.96H832.306V629.992H827.218C826.578 629.992 826.082 630.008 825.73 630.04C825.378 630.072 824.962 630.184 824.482 630.376C824.002 630.568 823.586 630.872 823.234 631.288C822.626 632.056 822.322 633.592 822.322 635.896V649H818.098ZM846.692 625.48C852.132 625.704 854.852 627.96 854.852 632.248C854.852 637.592 851.348 640.264 844.34 640.264H842.372V636.568H844.676C846.82 636.568 848.308 636.248 849.14 635.608C849.972 634.936 850.388 633.832 850.388 632.296C850.388 631.304 850.02 630.568 849.284 630.088C848.548 629.576 847.604 629.32 846.452 629.32C844.18 629.32 842.388 630.12 841.076 631.72C839.796 633.32 839.156 635.24 839.156 637.48C839.156 639.848 839.844 641.768 841.22 643.24C842.628 644.712 844.452 645.448 846.692 645.448C848.708 645.448 850.356 644.952 851.636 643.96L854.516 646.792C852.308 648.584 849.7 649.48 846.692 649.48C843.044 649.48 840.132 648.408 837.956 646.264C835.78 644.12 834.692 641.352 834.692 637.96C834.692 634.184 835.764 631.128 837.908 628.792C840.052 626.456 842.98 625.352 846.692 625.48ZM882.129 614.92C888.017 614.92 891.089 617.592 891.345 622.936H886.785C886.497 620.44 884.737 619.176 881.505 619.144C877.985 619.144 876.225 620.616 876.225 623.56C876.225 625.704 876.881 627.16 878.193 627.928C879.505 628.664 881.009 629.032 882.705 629.032H895.137V633.256H892.449V639.448C892.353 641.432 891.985 643.048 891.345 644.296C890.737 645.544 890.049 646.488 889.281 647.128C888.513 647.768 887.601 648.28 886.545 648.664C885.489 649.048 884.593 649.272 883.857 649.336C883.121 649.432 882.353 649.48 881.553 649.48C877.681 649.48 874.769 648.36 872.817 646.12C871.345 644.488 870.609 642.264 870.609 639.448C870.609 637.496 871.121 635.768 872.145 634.264C873.201 632.76 874.769 631.72 876.849 631.144V630.952C873.425 629.768 871.713 627.096 871.713 622.936C871.713 620.568 872.465 618.664 873.969 617.224C874.993 616.264 876.145 615.64 877.425 615.352C878.705 615.064 880.273 614.92 882.129 614.92ZM881.841 645.256C883.505 645.256 884.897 644.808 886.017 643.912C887.169 643.016 887.809 641.416 887.937 639.112H887.985V633.256H883.281C880.497 633.256 878.433 633.688 877.089 634.552C875.777 635.416 875.121 636.936 875.121 639.112C875.121 641.16 875.697 642.696 876.849 643.72C878.001 644.744 879.665 645.256 881.841 645.256ZM926.492 638.584H926.78L930.716 623.752C931.548 620.552 932.828 618.36 934.556 617.176C936.284 615.992 938.892 615.4 942.38 615.4V649H937.868V620.488C937.036 620.84 936.396 621.336 935.948 621.976C935.532 622.616 935.132 623.576 934.748 624.856L928.748 645.448H924.524L918.476 624.856C918.092 623.544 917.692 622.584 917.276 621.976C916.86 621.336 916.236 620.84 915.404 620.488V649H910.892V615.4C914.38 615.4 916.972 616.008 918.668 617.224C920.396 618.408 921.692 620.584 922.556 623.752L926.492 638.584ZM959.895 625.48C965.335 625.704 968.055 627.96 968.055 632.248C968.055 637.592 964.551 640.264 957.543 640.264H955.575V636.568H957.879C960.023 636.568 961.511 636.248 962.343 635.608C963.175 634.936 963.591 633.832 963.591 632.296C963.591 631.304 963.223 630.568 962.487 630.088C961.751 629.576 960.807 629.32 959.655 629.32C957.383 629.32 955.591 630.12 954.279 631.72C952.999 633.32 952.359 635.24 952.359 637.48C952.359 639.848 953.047 641.768 954.423 643.24C955.831 644.712 957.655 645.448 959.895 645.448C961.911 645.448 963.559 644.952 964.839 643.96L967.719 646.792C965.511 648.584 962.903 649.48 959.895 649.48C956.247 649.48 953.335 648.408 951.159 646.264C948.983 644.12 947.895 641.352 947.895 637.96C947.895 634.184 948.967 631.128 951.111 628.792C953.255 626.456 956.183 625.352 959.895 625.48ZM990.849 615.4H995.169V649H983.889C980.401 649 977.569 647.896 975.393 645.688C973.217 643.448 972.129 640.632 972.129 637.24C972.129 633.912 973.249 631.128 975.489 628.888C977.761 626.616 980.449 625.48 983.553 625.48C985.537 625.48 987.393 625.96 989.121 626.92V631.24C987.521 630.088 985.665 629.512 983.553 629.512C981.633 629.512 980.001 630.232 978.657 631.672C977.345 633.08 976.689 634.936 976.689 637.24C976.689 639.576 977.313 641.448 978.561 642.856C979.841 644.264 981.617 644.968 983.889 644.968H990.849V615.4ZM1007.17 649H1002.94V629.992H999.007L1000.93 625.96H1007.17V649ZM1002.75 621.16C1002.34 620.616 1002.13 620.024 1002.13 619.384C1002.13 618.744 1002.34 618.168 1002.75 617.656C1003.17 617.112 1003.81 616.84 1004.67 616.84C1005.54 616.84 1006.18 617.112 1006.59 617.656C1007.01 618.168 1007.22 618.744 1007.22 619.384C1007.22 620.024 1007.01 620.616 1006.59 621.16C1006.18 621.672 1005.54 621.928 1004.67 621.928C1003.81 621.928 1003.17 621.672 1002.75 621.16ZM1026.4 635.464V639.784C1025.18 638.856 1023.7 638.392 1021.94 638.392C1020.43 638.392 1019.26 638.696 1018.43 639.304C1017.6 639.88 1017.18 640.712 1017.18 641.8C1017.18 643.912 1018.75 644.968 1021.89 644.968H1028.22V635.8C1028.22 631.928 1026.34 629.992 1022.56 629.992H1014.88V625.96H1022.8C1025.9 625.96 1028.29 626.728 1029.95 628.264C1031.62 629.8 1032.45 632.008 1032.45 634.888V649H1021.74C1019.02 649 1016.86 648.392 1015.26 647.176C1013.66 645.96 1012.86 644.184 1012.86 641.848C1012.86 639.512 1013.71 637.736 1015.41 636.52C1017.1 635.304 1019.23 634.696 1021.79 634.696C1023.23 634.696 1024.77 634.952 1026.4 635.464ZM1036.19 648.616C1035.61 648.04 1035.32 647.336 1035.32 646.504C1035.32 645.672 1035.61 644.968 1036.19 644.392C1036.76 643.816 1037.47 643.528 1038.3 643.528C1039.13 643.528 1039.84 643.816 1040.41 644.392C1040.99 644.968 1041.28 645.672 1041.28 646.504C1041.28 647.336 1040.99 648.04 1040.41 648.616C1039.84 649.192 1039.13 649.48 1038.3 649.48C1037.47 649.48 1036.76 649.192 1036.19 648.616Z" fill="black"/>
<path className="arr" id="arrow1a" d="M499.501 35C499.501 35 822.001 35 1012 35C1202 35 1194.5 44.5 1194.5 115.5" stroke="black" stroke-width="9"/>
<path className="arr"  id="arrow1b" d="M964 175.5C1178.5 175.5 1194.5 172 1194.5 111" stroke="black" stroke-width="9"/>
<path className="arr" id="tri1" d="M685.151 50.7391L685.151 19.5622L712.151 35.1506L685.151 50.7391Z" fill="white" stroke="black" stroke-width="7"/>
<path className="arr" id="arrow3a" d="M816.5 375C816.5 375 863.501 375 1053.5 375C1182.5 375 1218.5 385 1218.5 505.5" stroke="black" stroke-width="9"/>
<path className="arr" id="arrow3b" d="M1064 637C1193 637 1218.5 626.5 1218.5 506" stroke="black" stroke-width="9"/>
<path className="arr" id="tri3" d="M926.151 390.739L926.151 359.562L953.151 375.151L926.151 390.739Z" fill="white" stroke="black" stroke-width="7"/>
<path className="arr" id="arrow4" d="M508.124 630C508.124 630 490.707 630 300.707 630C149.707 630 175.707 723 175.707 931.5" stroke="black" stroke-width="9"/>
<path className="arr" id="tri4" d="M395.151 643.739L395.151 612.562L368.151 628.151L395.151 643.739Z" fill="white" stroke="black" stroke-width="7"/> 
</svg>
